<svg width="21" height="24" viewBox="0 0 21 24" fill="none" xmlns="http://www.w3.org/2000/svg">
<path d="M2.97689 9.84C3.01712 9.33881 3.24464 8.87115 3.61417 8.53017C3.98369 8.18918 4.46808 7.9999 4.97089 8H17.0289C17.5317 7.9999 18.0161 8.18918 18.3856 8.53017C18.7551 8.87115 18.9827 9.33881 19.0229 9.84L19.8259 19.84C19.848 20.1152 19.8129 20.392 19.7227 20.6529C19.6326 20.9139 19.4894 21.1533 19.3022 21.3562C19.115 21.5592 18.8878 21.7211 18.6349 21.8319C18.382 21.9427 18.109 21.9999 17.8329 22H4.16689C3.89081 21.9999 3.61774 21.9427 3.36487 21.8319C3.112 21.7211 2.8848 21.5592 2.69759 21.3562C2.51037 21.1533 2.36719 20.9139 2.27706 20.6529C2.18693 20.392 2.1518 20.1152 2.17389 19.84L2.97689 9.84V9.84Z" stroke="white" stroke-width="2" stroke-linecap="round" stroke-linejoin="round"/>
<path d="M14.9999 11V6C14.9999 4.93913 14.5785 3.92172 13.8283 3.17157C13.0782 2.42143 12.0607 2 10.9999 2C9.93901 2 8.9216 2.42143 8.17145 3.17157C7.42131 3.92172 6.99988 4.93913 6.99988 6V11" stroke="white" stroke-width="2" stroke-linecap="round" stroke-linejoin="round"/>
</svg>
